<?xml version="1.0" encoding="UTF-8"?>
<svg id="Layer_1" data-name="Layer 1" xmlns="http://www.w3.org/2000/svg" viewBox="0 0 114.75 132.51">
  <defs>
    <style>
      .cls-1 {
        fill: #fff;
        fill-rule: evenodd;
      }

      .cls-2 {
        fill: #231f20;
      }
    </style>
  </defs>
  <polygon class="cls-2" points="0 33.13 0 99.38 57.38 132.51 114.75 99.38 114.75 33.13 57.38 0 0 33.13"/>
  <g>
    <path class="cls-1" d="M90.2,36.84v38.91c0,9.04-3.68,17.25-9.63,23.19-5.94,5.94-14.15,9.63-23.19,9.63s-17.25-3.68-23.19-9.63c-5.94-5.94-9.63-14.15-9.63-23.19h6.91c0,7.14,2.91,13.61,7.61,18.31,4.69,4.7,11.17,7.61,18.31,7.61s13.61-2.91,18.31-7.61c4.69-4.7,7.61-11.17,7.61-18.31V36.84H31.46v13.81h-6.91V29.93H90.2v6.91h0Z"/>
    <path class="cls-1" d="M44.52,60.88v-10.22h32.63v-6.91H37.61v32c0,5.44,2.22,10.38,5.8,13.96,3.58,3.58,8.52,5.8,13.96,5.8s10.38-2.22,13.96-5.8,5.8-8.52,5.8-13.96h-6.91c0,3.53-1.45,6.75-3.78,9.08-2.33,2.33-5.55,3.78-9.08,3.78s-6.75-1.45-9.08-3.78-3.78-5.55-3.78-9.08v-7.97h25.72v-6.91h-25.72Z"/>
  </g>
</svg>