<?xml version="1.0" encoding="UTF-8"?>
<svg xmlns="http://www.w3.org/2000/svg" viewBox="0 0 100 46.67">
  <defs>
    <style>
      .cls-1 {
        fill: #fff;
      }

      .cls-2 {
        fill: #c14e3c;
      }

      .cls-3 {
        fill: #912455;
      }

      .cls-4 {
        fill: none;
        stroke: #000;
        stroke-miterlimit: 10;
        stroke-width: .13px;
      }

      .cls-5 {
        fill: #5c5552;
      }
    </style>
  </defs>
  <g id="Background">
    <rect class="cls-5" width="100" height="46.67"/>
  </g>
  <g id="Jasper_Elements" data-name="Jasper Elements">
    <polygon class="cls-2" points="103.99 -6.12 76.05 11.06 38.08 2.72 23.66 11.59 6.06 7.72 -5.15 14.62 4.21 -28.02 103.99 -6.12"/>
    <polygon class="cls-2" points="8.82 13.86 -13.03 27.85 -14.38 27.55 7.41 13.6 8.82 13.86"/>
    <polygon class="cls-2" points="21.59 46.5 31.39 40.23 49.66 44.24 51.43 43.11 99.01 53.55 96.73 63.96 21.59 46.5"/>
  </g>
  <g id="Murrey_Elements" data-name="Murrey Elements">
    <polygon class="cls-3" points="74.3 -25 1.87 21.35 -11.35 18.45 60.52 -27.54 74.3 -25"/>
    <polygon class="cls-3" points="127.73 30.01 55.3 76.36 42.08 73.46 113.95 27.47 127.73 30.01"/>
    <polygon class="cls-3" points="28.92 45.33 42.98 36.34 56.39 39.28 62.98 35.06 108.89 45.14 105.17 62.07 28.92 45.33"/>
    <polygon class="cls-3" points="35.95 38.9 -13.73 70.69 -16.81 70.02 32.74 38.31 35.95 38.9"/>
    <polygon class="cls-3" points="90.95 -26.96 36.36 7.98 32.97 7.23 87.42 -27.61 90.95 -26.96"/>
  </g>
  <g id="Black_Elements" data-name="Black Elements">
    <g>
      <g>
        <polygon points="27.8 4.42 26.59 5.11 33.21 6.91 34.42 6.22 27.8 4.42"/>
        <polygon points="25.35 5.82 24.15 6.5 30.76 8.31 31.97 7.62 25.35 5.82"/>
        <polygon points="22.9 7.22 21.7 7.9 28.32 9.71 29.52 9.02 22.9 7.22"/>
        <polygon points="20.45 8.61 19.25 9.3 25.87 11.11 27.07 10.42 20.45 8.61"/>
        <polygon points="18 10.01 16.8 10.7 23.42 12.51 24.62 11.82 18 10.01"/>
        <polygon points="15.55 11.41 14.35 12.1 20.97 13.91 22.17 13.22 15.55 11.41"/>
        <polygon points="13.11 12.81 11.9 13.5 18.52 15.31 19.73 14.62 13.11 12.81"/>
        <polygon points="10.66 14.21 9.45 14.9 16.07 16.7 17.28 16.02 10.66 14.21"/>
      </g>
      <polygon points="44.97 42.02 22.44 54.89 21.1 54.52 43.57 41.69 44.97 42.02"/>
      <g>
        <path class="cls-4" d="M94.16,11.53c-2.35,1.34-13.83,7.9-13.83,7.9L43.28,9.33l-14.49,8.28-5.06-1.38"/>
        <path d="M93.88,11.11c.24-.14,.55-.05,.68,.19,.14,.24,.05,.55-.19,.68s-.55,.05-.68-.19c-.14-.24-.05-.55,.19-.68Z"/>
        <path d="M23.82,15.95c-.16-.04-.33,.05-.37,.21s.05,.33,.21,.37,.33-.05,.37-.21-.05-.33-.21-.37Z"/>
      </g>
      <g>
        <polyline class="cls-4" points="102.33 41.51 89.47 48.85 64.07 41.92 57.64 45.59 49.84 43.46"/>
        <path d="M49.99,42.99c-.27-.07-.54,.08-.62,.35s.08,.54,.35,.62,.54-.08,.62-.35-.08-.54-.35-.62Z"/>
      </g>
    </g>
  </g>
  <g id="White_Elements" data-name="White Elements">
    <g>
      <polygon class="cls-1" points="36.68 -10.19 14.44 3.17 13.09 2.83 35.28 -10.49 36.68 -10.19"/>
      <g>
        <polygon class="cls-1" points="94.41 39.11 93.44 39.7 98.87 41.05 99.84 40.47 94.41 39.11"/>
        <polygon class="cls-1" points="92.43 40.3 91.46 40.88 96.9 42.24 97.87 41.65 92.43 40.3"/>
        <polygon class="cls-1" points="90.46 41.48 89.49 42.07 94.92 43.42 95.89 42.84 90.46 41.48"/>
        <polygon class="cls-1" points="88.48 42.67 87.51 43.25 92.95 44.61 93.92 44.03 88.48 42.67"/>
        <polygon class="cls-1" points="86.51 43.85 85.54 44.44 90.97 45.79 91.94 45.21 86.51 43.85"/>
        <polygon class="cls-1" points="-1.44 43.23 -2.41 43.81 3.03 45.17 4 44.58 -1.44 43.23"/>
        <polygon class="cls-1" points="-3.41 44.41 -4.38 44.99 1.05 46.35 2.02 45.77 -3.41 44.41"/>
      </g>
    </g>
  </g>
</svg>