<?xml version="1.0" encoding="utf-8"?>
<!-- Generator: Adobe Illustrator 27.0.1, SVG Export Plug-In . SVG Version: 6.00 Build 0)  -->
<svg version="1.1" id="Layer_1" xmlns="http://www.w3.org/2000/svg" xmlns:xlink="http://www.w3.org/1999/xlink" x="0px" y="0px"
	 viewBox="0 0 288 288" style="enable-background:new 0 0 288 288;" xml:space="preserve">
<style type="text/css">
	.st0{fill-rule:evenodd;clip-rule:evenodd;fill:#FFFFFF;}
</style>
<polygon points="28.3,77.2 28.3,210.8 144,277.6 259.7,210.8 259.7,77.2 144,10.4 "/>
<g>
	<path class="st0" d="M210.2,84.7v78.4c0,18.2-7.4,34.8-19.4,46.8c-12,12-28.5,19.4-46.8,19.4s-34.8-7.4-46.8-19.4
		c-12-12-19.4-28.5-19.4-46.8h13.9c0,14.4,5.9,27.4,15.3,36.9c9.5,9.5,22.5,15.3,36.9,15.3c14.4,0,27.4-5.9,36.9-15.3
		c9.5-9.5,15.3-22.5,15.3-36.9v-62.4V84.7H91.8v27.8H77.8V70.8h132.3V84.7L210.2,84.7z"/>
	<path class="st0" d="M118.1,133.2v-20.6h65.8V98.6h-72.7h-7v7v57.6c0,11,4.5,20.9,11.7,28.2c7.2,7.2,17.2,11.7,28.2,11.7
		c11,0,20.9-4.5,28.2-11.7c7.2-7.2,11.7-17.2,11.7-28.2h-13.9c0,7.1-2.9,13.6-7.6,18.3c-4.7,4.7-11.2,7.6-18.3,7.6
		c-7.1,0-13.6-2.9-18.3-7.6c-4.7-4.7-7.6-11.2-7.6-18.3v-16.1h51.9v-13.9H118.1L118.1,133.2z"/>
</g>
</svg>
